<svg id="Capa_1" data-name="Capa 1" xmlns="http://www.w3.org/2000/svg" viewBox="0 0 1080 1080"><defs><style>.cls-1{fill:#fff;}</style></defs><rect width="1080" height="1080"/><path class="cls-1" d="M253.21,844.5c1.06,2.49,1.37,5.62,4.47,5,5.59-1.21,6.2,2.62,7.43,6.25,1,2.94,2.22,5.8,3.92,10.18,2-5.49,3.38-9.56,4.86-13.61.5-1.36.88-3.32,2.8-2.78,2.27.63.94,2.44.48,3.66-2.48,6.6-4.94,13.22-7.66,19.73-2.05,4.92-4.64,6-9.36,4.58,0-1.92,1.7-1.54,2.76-2.05,3.13-1.51,4.45-4,3.26-7.31-1.77-4.88-3.74-9.7-5.74-14.5-.51-1.22-.78-3-3.07-2.14-1.61.61-3.17.8-3.08,3.12.14,3.34,0,6.7.08,10,0,.87-.17,1.87.85,2.47s3.55.07,3,2.36c-.37,1.45-2.22,1.06-3.46,1.11a3.3,3.3,0,0,1-3.77-3.25c-.22-2.59,0-5.21-.28-7.8-.29-2.79.5-5.48-1.59-8.4C247.64,849.1,252,847.11,253.21,844.5Z"/><path class="cls-1" d="M197.5,842.7c1.9,0,4.48.69,5.46,3.56,1.13,3.27-.21,5.84-3.18,7.46-2.39,1.3-4.8,2.22-2.11,5.62,2.54,3.2,4.31,4.13,5.82-.61.35-1.11.39-3.06,2.26-2.37s1,2.4.61,3.8c-.84,2.92-5.6,7,2.1,7.53,1,.08,1.14.94.9,1.66a1.79,1.79,0,0,1-2.23,1.19c-5-3-10,.28-14.92.11a7,7,0,0,1-6.83-4.83c-1.16-3.28-.62-6.51,2.22-8.54s3.09-3.94,2.59-7C189.41,845.36,191.9,842.78,197.5,842.7ZM193.92,868c1.47-.29,4.59-.54,4-2.32-1-3-2.67-6.62-5.79-7.63-1.94-.62-3.59,2.15-3.69,4.67C188.3,866.3,190.41,867.68,193.92,868Zm1.65-15.2c2.47-.77,4.53-2.18,4.63-4.89.07-1.87-1.61-2.85-3.46-2.83-2.58,0-3.57,1.73-3.58,4C193.16,850.77,193.26,852.56,195.57,852.83Z"/><path class="cls-1" d="M235.85,870.73c-5,.12-8.56-.53-11.28-3.55-.86-1-1.81-2.23-.61-3.41s2.35-.48,3.27.69c3,3.85,7.1,3.48,11.16,2.56a4.12,4.12,0,0,0,3.43-3.91c.11-2.19-1.25-3.47-3.16-4.07-3.18-1-6.42-1.79-9.6-2.78-3.49-1.09-5.09-3.61-4.87-7.2.23-3.82,2.85-5.6,6.17-6.14,4.4-.72,9-1.28,12.71,2.09,1,.87,2.57,2.23,1,3.69-1,.95-2.37.41-3.34-.8-2.29-2.84-5.45-2.92-8.66-2.37-2.15.37-3.95,1.51-4,4,0,2.16,1.58,3.27,3.47,3.82,2.49.74,5.05,1.26,7.52,2,4,1.25,7.15,3.27,6.6,8.23s-4.29,6-8.17,7A5.35,5.35,0,0,1,235.85,870.73Z"/><path class="cls-1" d="M147.31,868.75c.19.85,0,1.49-.95,1.65-1.85.31-2.82-.72-3.17-2.34-1-4.6-3.66-6-8.38-5.81-4.35.18-7.63.58-8.41,5.64-.24,1.58-1.35,2.9-3.13,2.3-2.33-.78-.83-2.48-.37-3.64,2.78-7.06,5.72-14,8.53-21.1.61-1.51,1.33-2.58,3.1-2.68a3.13,3.13,0,0,1,3.38,2.26q4.53,11.34,9.1,22.66A9.82,9.82,0,0,1,147.31,868.75ZM134.78,846.6c-1.1,2.5-1.8,4-2.41,5.51-.48,1.21-.77,2.49-1.3,3.68-1.26,2.83-.1,3.47,2.63,3.56,5.92.2,6.23-.11,4-5.56C136.9,851.74,136.06,849.71,134.78,846.6Z"/><path class="cls-1" d="M332.28,859.48a31,31,0,0,1,.06-5c.39-2.35-1.8-8.06,4.43-3.88.09.07.33-.13.51-.15,12-1.24,12.14-1.24,11.88,11.57-.05,2.69,2.25,7.67-2,7.76-3.06.06-1.11-4.95-1.52-7.67-.27-1.82,0-3.72-.11-5.57-.17-2.61-.95-4.91-4.14-4.88-2.79,0-4.71,1.62-5,4.32-.41,3.68-.35,7.42-.44,11.13,0,1.51.26,3.24-2,3.14-1.86-.08-1.68-1.66-1.7-2.94C332.25,864.7,332.27,862.09,332.28,859.48Z"/><path class="cls-1" d="M403.65,859.65c0,7.11-3.46,11.13-9.59,11.09s-9.19-3.55-9.26-10.66c-.07-7.62,2.78-11.1,9.19-11.21S403.62,852.25,403.65,859.65Zm-4-.87c-.29-2.61.15-6.8-5.13-7.24-4-.32-6.12,2.6-6.07,8.08,0,4.08.55,8.36,5.86,8.26C399.28,867.78,399.78,863.75,399.68,858.78Z"/><path class="cls-1" d="M477.94,870.23c-5.29-2.84-10,.3-14.86.26-3,0-4.8-1.89-5.21-4.83-.46-3.28.62-6,3.87-7.19a29,29,0,0,1,5.47-1c1.84-.3,4.62.53,3.93-3-.57-2.81-2.75-3.29-5.17-2.92a5.48,5.48,0,0,0-2.43,1.13c-1.26,1-2.78,3.11-4,1.09-1-1.74,1.08-3.26,2.77-4.09,6.81-3.34,12.65.39,13,8.05C475.5,861.86,473.86,866.33,477.94,870.23Zm-6.67-8c-.09-2.94-2.36-2-4-2-3.07,0-5.69.85-5.64,4.59,0,2.26,1.61,3.34,3.77,3.09C468.6,867.48,471,866,471.27,862.19Z"/><path class="cls-1" d="M299.32,849a7,7,0,0,1,6.67,3.31c1.33,2.24,2.93,4.88,1.66,7.28-1,1.86-3.72.62-5.67.83a30.38,30.38,0,0,0-3.32.1c-1.85.43-5.1-1.5-5.14,2.16s2.62,5.1,6,5.08a7.93,7.93,0,0,0,3.14-1c1.2-.57,2.5-2.85,3.59-1,1.23,2.09-1.12,3.27-2.74,4-3.82,1.7-7.91,1.73-10.92-1.26-3.9-3.88-4.11-8.88-2.39-14C291.6,850.41,294.68,848.91,299.32,849Zm-.74,9.13c1.5-1.33,5.33,1.82,5.23-2.48-.05-2.59-2.21-4.12-5-4.13-3.05,0-5.28,1.59-5.21,4.5C293.66,859.14,296.71,857.41,298.58,858.14Z"/><path class="cls-1" d="M406.84,860c.32-9.33,6.62-13.76,13.33-10.21,1.9,1,4,3,3,4.62-1.52,2.31-2.95-.24-4.26-1.42a4.78,4.78,0,0,0-2.46-1.17c-2.56-.33-4.59.87-5.11,3.3-.87,4.15-2,8.71,2.16,11.79,2.07,1.54,4.7,1.16,6.31-1.34.91-1.4,2.15-2.69,3.53-1.45s-.3,2.7-1.12,3.75c-2.53,3.23-6,3.61-9.57,2.29C407.47,868.28,407,863.79,406.84,860Z"/><path class="cls-1" d="M368.3,859.6c.19,3,0,6.22,3.32,7.64,2.81,1.19,5,.07,6.42-2.65a1.94,1.94,0,0,1,2.94-.47c1.26.86.34,2.07-.18,2.89a7.64,7.64,0,0,1-5.36,3.6c-4.07.64-7.32-.58-9.47-4.22-2.47-4.19-1.77-12,1.42-15.16s6.67-2.87,10.35-1.5a7.31,7.31,0,0,1,2.5,2.06c.74.8,1.57,1.85.5,2.88a1.89,1.89,0,0,1-2.95-.19c-1.66-2.53-3.73-3.7-6.54-2.22S368.56,856.85,368.3,859.6Z"/><path class="cls-1" d="M507.44,849a18.41,18.41,0,0,1,4.05,1.08c1.27.61,2.85,1.86,1.75,3.47-1,1.43-2.35.24-3.32-.58a6,6,0,0,0-4.67-1.38c-1.54.15-3,.6-3.28,2.42s1,2.64,2.48,3.14c2.27.8,4.72,1.19,6.84,2.26a5.62,5.62,0,0,1,1.77,8.9c-3.11,3.35-12.55,3-15.44-.59-.65-.8-1.05-1.7-.12-2.37s2-.38,2.94.49c2.14,2,4.49,3.28,7.5,1.76,1.21-.61,2.36-1.37,2.37-2.76s-1-2.19-2.48-2.47c-1.06-.2-2-.79-3.1-1-4-.84-7.16-2.63-6.58-7.31C498.79,849,502.89,849.15,507.44,849Z"/><path class="cls-1" d="M431.08,858.35c5.07-2.61,6.39-8.41,11.9-9.21-.38,4.87-7.42,5.74-5.6,10.47,1.4,3.63,4.48,6.61,7.12,10.31-4.92.93-5.48-3-7.53-5-1.22-1.16-1.49-3.89-4-3.13-2.31.71-1.79,2.93-1.95,4.74-.11,1.34.71,3.4-1.55,3.52-2.85.16-1.84-2.29-1.86-3.68-.1-7.07-.07-14.15,0-21.22,0-1.36-.62-3.46,1.55-3.54,2.68-.11,1.83,2.28,1.87,3.75C431.14,849.41,431.08,853.46,431.08,858.35Z"/><path class="cls-1" d="M166.27,844.42c1.31,2.57,2.07,5.05,5.38,5.29-5.31,5.09-5.52,13.81-.71,18.12,1.56,1.4,1.09,2.29-.57,2.65-3.94.84-5.75-1.12-6.31-4.94-.72-4.9,1.51-10-1.72-14.88C161.53,849.43,165.71,847.39,166.27,844.42Z"/><path class="cls-1" d="M450,844.67c2.35,1.44.83,6.19,6.36,4.18-6,5.41-6.3,14.74-1.9,18.77.57.52,1.3,1,.83,1.73a2.66,2.66,0,0,1-1.69,1.1c-3.32.45-5.13-.84-5.68-4.39-.79-5.1,2-10.58-1.86-15.51C445.62,850,448.55,846.78,450,844.67Z"/><path class="cls-1" d="M150.63,859.59c0-1.11,0-2.23,0-3.34,0-6.11,2.6-8.35,8.46-7.3a1.62,1.62,0,0,1,1.53,1.33,1.33,1.33,0,0,1-1,1.69c-6.79,1.28-4.75,6.73-5.42,11-.38,2.43,1.77,6.9-1.77,6.87-3.39,0-1.17-4.51-1.71-7A16.07,16.07,0,0,1,150.63,859.59Z"/><path class="cls-1" d="M493.34,856c0,3.7,0,7.41,0,11.12,0,1.25.23,2.83-1.57,3s-1.92-1.34-1.93-2.63q0-11.68,0-23.36c0-1.1,0-2.4,1.51-2.5,1.86-.13,1.94,1.3,1.95,2.65,0,3.89,0,7.78,0,11.68Z"/><path class="cls-1" d="M281.35,855.43c0-3.9,0-7.8,0-11.71,0-1.21.33-2.25,1.85-2.11,1.18.1,1.47,1.07,1.47,2q0,12.27,0,24.54c0,1.18-.4,2.27-1.92,2.1s-1.4-1.47-1.41-2.54C281.32,863.61,281.34,859.52,281.35,855.43Z"/><path class="cls-1" d="M323.61,859.71c0-2.79,0-5.57,0-8.35,0-.9.08-2,1.32-2.11a1.79,1.79,0,0,1,2.12,2q.1,8.63.07,17.26a1.63,1.63,0,0,1-1.71,1.77c-1.55.06-1.8-1-1.82-2.18C323.58,865.28,323.6,862.49,323.61,859.71Z"/><path class="cls-1" d="M484.38,860c0,2.59,0,5.17,0,7.76,0,1.16-.22,2.31-1.64,2.44s-1.77-1.1-1.79-2.22q-.09-8-.05-16.06c0-1.11.15-2.36,1.63-2.4,1.87,0,1.86,1.42,1.88,2.73,0,2.58,0,5.17,0,7.75Z"/><path class="cls-1" d="M388.47,365.78q0,49.73,0,99.44c0,16.91-8,26.45-24.49,30.67-19.51,5-39.34,5.51-59.24,5.56q-85.74.23-171.49.23c-1.81,0-4.56.56-4.25-2s3.32-1.61,5.17-1.62q83-.13,165.91-.17c19,0,38-.64,56.67-4.43a70.51,70.51,0,0,0,13.77-4.32c10.27-4.4,14.88-12,14.63-23.2Q384,415.13,383.4,364.3c-.4-34.81-.29-69.64-.72-104.46-.2-16.17,7.73-27,21.11-34.58,16.53-9.3,34.62-13.89,53.15-17.18,40.42-7.2,81.13-7.28,121.84-4.24,28.34,2.11,56.53,6,83.28,16.6a63.53,63.53,0,0,1,13.27,7c13.2,9.22,13,19.55,4.39,31.57-9,12.49-22.24,19.47-36.13,25-22.19,8.89-45.36,13.42-69.16,15.78a381.74,381.74,0,0,1-79.12-.81c-30.79-3.34-59.89-12.27-86.05-29.48-2.14-1.4-4.35-3.43-7.13-2.15-3.18,1.45-2.58,4.74-2.61,7.4-.41,37.8-.92,75.6-1,113.4-.05,17.54,8.49,30.36,23.65,38.88,5.49,3.09,11,6.19,16.54,9.15,2.57,1.37,4.52.86,5.57-2.27,5-14.74,10.16-29.42,15.11-44.18,3-9,9.51-12.76,17.95-9.62q29.37,11,58.59,22.3c9,3.51,11,9.06,8,18.11-3.33,9.87-8,19.17-11.82,28.79-3.35,8.35-4.39,14.2,7,18.06,21.77,7.4,43.3,15.5,65,23,4.88,1.69,10,1.72,13.44-3.55,1.64-2.5,2-4.09-1.82-4.05-23.42.21-43.83-9.36-64-19.74-10-5.13-11.73-9.4-8-19.89,5.54-15.73,11.27-31.39,17.08-47,3-8.09,8.85-11.05,18-8.18,12.34,3.86,24.42,8.56,36.61,12.9q12,4.31,24.1,8.6c7.26,2.61,10.67,9.38,7.88,16.39-6,15-12.16,29.9-18.18,44.88-.5,1.24-2.1,2.68-.72,4s2.75-.22,4-.81c15.88-7.48,25.74-19.83,29-37,3.2-16.81,5-33.84,7.06-50.82,2.64-21.78,5.56-43.52,8.53-65.25,1.89-13.8,4-27.58,6.19-41.35a103.61,103.61,0,0,1,3-13c.53-1.79,1.33-4.28,4-3.8,2.32.41,2.35,2.59,2.46,4.47,1,17.12.37,34.26.14,51.38-.6,45.06-1.08,90.12-2.3,135.17-.63,23.09-12.26,40.93-30.37,54.57-16.87,12.72-36.43,18.82-57,22.12-34.27,5.48-68.34,2.7-102.18-3.14a473.46,473.46,0,0,1-71.68-18.19c-3.54-1.21-6.74-1.32-8.95,2-2.33,3.45-1.33,6.8,1.55,9.53a101.78,101.78,0,0,0,29.75,19.17c47.24,20.47,96.65,24,147.06,17.65,36-4.51,69.6-16.16,99.36-37.49,9-6.47,17.35-13.78,28.1-17.7a72.33,72.33,0,0,1,25-4.5q100.83-.15,201.66-.17a20.65,20.65,0,0,1,3.34.09,2.4,2.4,0,0,1,1.69,1.08,1.7,1.7,0,0,1-1.26,2.16,17.2,17.2,0,0,1-4.36.48c-63.31.07-126.62.38-189.93,0-22.83-.13-42.58,5.72-60.62,20.54-20.14,16.54-44.21,26.12-69.39,32.94-31.23,8.47-63,11-95.07,8.8-36.41-2.49-71.69-9.84-103.55-29a67.69,67.69,0,0,1-15.62-12.5c-3.39-3.76-4.43-8.16-1.47-12.72s7-6.11,12.48-4.41c21.61,6.7,43.4,12.9,65.64,17,34.32,6.37,69,10,103.8,5.14,20.65-2.91,40.67-8.57,58-21.19,18.86-13.75,29.67-31.79,30.12-55.53.83-44.12,1.87-88.23,1.81-132.35,0-9.12.46-18.24.61-27.35,0-1.51.71-3.9-1.65-4-2-.06-1.5,2.2-1.69,3.57-4,28.15-8.3,56.25-11.69,84.47-2.4,19.93-4.75,39.87-7.83,59.7-3.23,20.84-14.74,35.77-34.25,44-4.65,2-8.24,4-10.32,9.08-2.59,6.32-10.37,9.29-17,7q-31.17-10.89-62.21-22.13c-3-1.07-6-1.62-8.91-3.12-7.46-3.9-9.92-10.21-6.63-18.05,4.22-10.09,8.54-20.14,12.58-30.31,3.54-8.9,1.46-12.77-7.46-16.23-18.61-7.2-37.73-13.08-56-21.11-5.23-2.29-9.76-.21-11.94,5.65-4.2,11.3-8.11,22.71-12.11,34.09-1.36,3.84-2.58,7.74-4,11.57-1.16,3.18-.42,5.2,2.83,6.66,17.57,7.91,35.34,15.33,53.23,22.47,2.92,1.17,5.77,2.56,8.57,4,6.27,3.25,8.7,9.37,6.2,15.32a12.73,12.73,0,0,1-15.91,6.68c-18.58-7-37-14.44-55.11-22.51-10.56-4.71-12.49-9.72-8.58-20.38,1.42-3.87,1-6.34-3.36-8.38A172.5,172.5,0,0,1,416,427.72c-14.74-9.35-21.26-23.06-21.28-39.85-.05-38,.46-76,.62-113.94,0-4.39.76-8.23,4.83-10.5s7.33.39,10.66,2.46c15.34,9.54,31.43,17.16,49.05,21.86,44.45,11.86,89.31,11.62,134.37,5.46,21-2.87,41.28-8.71,60.15-18.7,9.27-4.9,18.1-10.69,23.42-20,8.16-14.26,1.75-20.69-9.25-26.4-22.3-11.57-46.81-15.17-71.32-18.19-29-3.57-58.18-5.27-87.41-3.52-23.55,1.42-47.08,3.49-70,9.38-13.48,3.46-26.59,7.89-38.39,15.68-10.63,7-15.09,17-15.13,29.31Q386.13,313.3,388.47,365.78Zm221.19,113c5.66-.46,11.36,1.4,14.06-5.21,6.51-16,13.23-31.84,19.71-47.81,2.46-6-.18-11.49-6.18-13.24-20.29-5.93-39.57-14.78-59.86-20.73-6.54-1.92-10.16-.92-12.61,5.62-6,16.16-11.72,32.44-17.54,48.68-2.46,6.85-1.7,9.31,4.62,12.67,6.06,3.21,12.17,6.37,18.49,9C583.19,473.16,596.2,478.11,609.66,478.81Zm-104.11,7.57c5.83.51,8.89-1.56,9.92-5.92s-1-7.19-4.93-8.86q-31-13.37-62.06-26.69c-2-.85-3.29-.8-4.62,1.28-4.66,7.27-2.69,14.26,5.25,17.65,11,4.73,22,9.64,33.19,14C490.36,481,498.27,484.67,505.55,486.38Z"/><path class="cls-1" d="M235.26,688.22a52.46,52.46,0,0,1-22.48,13.91c-4.76,1.43-4.75,3-2.38,6.76,15,23.73,29.79,47.58,44.64,71.39.86,1.39,2.64,2.81,1.83,4.4s-3,.75-4.56.76c-8.93.08-17.86-.05-26.79.09-2.9,0-4.92-.84-6.46-3.34-14.79-24-29.7-48-44.37-72.13-1.75-2.87-3.89-2.89-6.52-2.91C154.92,707,154.92,707,154.92,720c0,20.1-.12,40.2.09,60.29.05,4.21-1.14,5.47-5.33,5.27-7.05-.34-14.14-.31-21.2,0-4,.17-5-1.33-4.95-5.12.14-29.4.09-58.8.09-88.2,0-1.11-.13-2.22-.2-3.32.06-.55.15-1.11.17-1.66.29-11.26.29-11.26,11.86-11.26,4.28,0,8.57-.16,12.84,0,3.82.17,4.74-.57,2.41-4.16-8.21-12.63-16.13-25.45-24.32-38.1a16.53,16.53,0,0,1-2.83-9.91c.23-7.25.07-14.52.06-21.78,0-2.09-.29-4.09,3-4,23.07.47,46.2-1.43,69.19,1,14.46,1.54,27.82,6.59,38.49,17.18C253.15,635.07,253.64,668.78,235.26,688.22ZM179.1,629.43c-5.53,0-9.24-.09-12.95.05-1.36,0-3.22-1-4,.73-.71,1.55,1,2.68,1.69,3.86q10.85,17.49,21.85,34.87c4.86,7.7,4.88,7.69,13.67,5.08,11.49-3.4,17.7-10.83,17.79-21.29.1-10.13-6.37-17.87-17.78-21.29C192.13,629.27,184.72,629.22,179.1,629.43Z"/><path class="cls-1" d="M736.58,688.54c-4.23,3-3.47,5.71-.3,9.43,23.63,27.69,47,55.56,70.52,83.38.82,1,1.93,1.77,2.08,4.14-6.93,0-14-.89-20.72.19C773.91,788,765,782,756.83,770.7c-13.07-18-27.86-34.76-41.76-52.18-2.76-3.47-4.07-3.31-7.52-.27-11,9.69-15.68,21.11-13.8,35.86,1.09,8.6,0,17.47.29,26.2.15,4.3-1.39,5.43-5.46,5.26-7.06-.29-14.14-.31-21.2,0-4,.16-5-1.29-5-5.1.13-28.27.08-56.55.05-84.82,0-2-.23-4.06-.36-6.08.13-13,.33-26,.38-39.07.06-15.83.12-31.66-.08-47.48,0-3.93,1.17-5.16,5.05-5,7.25.27,14.53.29,21.78,0,3.8-.16,4.64,1.19,4.62,4.77-.14,26.81-.11,53.62-.06,80.44,0,2.14-.56,4.42.68,6.48,2.54-.16,3.36-2.31,4.58-3.8Q732.38,645,765.51,604c3.43-4.27,6.92-6.37,12.6-6.09,10,.51,20,.14,31.4.14-6.74,8.35-12.72,15.78-18.72,23.18Q765.32,652.65,739.84,684C738.67,685.47,737.66,687,736.58,688.54Z"/><path class="cls-1" d="M933.81,689.82c12,12,18.17,26.35,18,43.46-.29,27.74-18.85,49.8-46.38,53.54C880.91,790.15,859,785,843.73,763.5c-5.53-7.75-7.93-16.68-8.45-26.18-.17-3.15.8-4.26,4-4.18q11.16.3,22.33,0c3.3-.08,4.68.69,5.39,4.38,2.6,13.5,16.29,21.17,32.13,18.52,14.12-2.36,22.88-13.26,21.32-26.55-1.29-11-11.1-20.2-23.86-22.48-6.59-1.18-13.32-.6-19.88-2.53-10.88-3.2-20.73-8-28.78-16.13-22.19-24.45-16.34-71.75,20.3-87.72,27.12-11.82,64.69-3.35,78,26.1,2.81,6.21,4.07,12.71,5,19.35.32,2.22-.51,3-2.7,3-8.38-.07-16.76-.1-25.13,0-2.41,0-3-.94-3.44-3.19-3-16.35-18.84-21.23-33-18.5-15.3,3-23.19,15.39-20.22,30.7,1.84,9.45,11.57,17.3,23,18,10.86.62,21.51,2,31.44,6.65C925.59,684.71,929.63,687.42,933.81,689.82Z"/><path class="cls-1" d="M496.07,688.63c-1.11,31.25,13.7,55.61,40.94,64.63,22.36,7.41,43.37,3.33,61.67-11.94,2.75-2.3,4.15-2.38,6.57.26,4.88,5.35,10,10.54,15.3,15.44,3.24,3,2.78,4.9-.32,7.5-27.08,22.71-58,29-91.42,19.18-40.57-12-63.87-45.72-64.57-90.65,0-1.48-.1-3-.15-4.44.63-20.75,6.1-40,18.44-56.88,15.91-21.8,38.05-33,64.28-35.81,27.37-3,51.79,4.85,72.93,22.83,4,3.36,3.74,5.2.16,8.41-5.26,4.7-10.21,9.77-15,14.93-2.16,2.31-3.33,2.14-5.75.17-21.36-17.43-45-20.19-70-9.29-16,7-25.38,20.21-30.26,36.62C497.07,675.73,495.21,682,496.07,688.63Z"/><path class="cls-1" d="M422.72,688.43c-8,19.21-20.88,33.59-40.52,41.22a69.46,69.46,0,0,1-89-37c-.52-1.17-1.15-2.29-1.73-3.44-3.39-11.91-5.36-24-2.8-36.29,6-28.92,23.25-47.89,51.77-55.26,26.63-6.88,49.87.78,68.17,21.08,17.54,19.44,22.09,42.31,14.51,67.48A17.61,17.61,0,0,0,422.72,688.43Zm-37.22,1.62c2.36-1.36,3.65-3.61,4.9-5.88,9.23-16.77,5.59-37.2-8.73-48.91-14.54-11.9-35-11.68-49.73.52-16.22,13.43-17.83,41.72-3.1,54.47C341.62,707.82,372.87,707.71,385.5,690.05Z"/><path class="cls-1" d="M798,562.48c0-7.94,0-15.89,0-23.83,0-2.72.18-4.42,3.84-4.32,3.33.09,4.06,1.14,4,4.18-.14,10.61,0,21.22-.15,31.83,0,2,1.81,5.57-2.11,5.75-3.37.15-7.38,1.8-9.8-2.88-3.84-7.43-8.12-14.63-12.29-21.89-.67-1.17-1.08-2.7-3.39-3.43,0,7.92,0,15.42,0,22.93,0,2.62,1,5.52-3.81,5.57-4.52.05-4.09-2.38-4.08-5.26,0-10.43-.07-20.85.07-31.28,0-1.86-1.47-5.21,2-5.21,3.16,0,7.07-2,9.42,2.42,3.48,6.56,7.28,12.94,11,19.38,1.25,2.18,2.58,4.31,3.87,6.46Z"/><path class="cls-1" d="M157.69,555.8c7.24,4.18,9.35,7.6,8.21,12.78-1.19,5.39-5.88,8.83-13.13,9.11-6.69.26-13.4,0-20.09.2-2.61.07-3.51-.6-3.48-3.37.16-11.53.08-23.07.05-34.61,0-2,0-3.61,2.83-3.51,7.06.26,14.15,0,21.19.48,4.65.31,8.78,2.27,10,7.45C164.35,549.2,162.82,553.12,157.69,555.8Zm-11.91,15.91a65.7,65.7,0,0,0,7.7-.86c2.4-.53,3.65-2.39,3.76-4.89.09-2.18-.48-4.09-2.62-5.08-5-2.3-10.21-.91-15.34-1.12-.84,0-1,.83-1.21,1.56C135.89,568.44,138.31,571.7,145.78,571.71Zm-1.41-18.66c2,0,4.13.35,6.06-.07,3.75-.82,5.22-3.37,3.85-7.05-.95-2.56-13.94-4.45-15.82-2.41a2.6,2.6,0,0,0-.38,1C136.15,550.11,138.39,553.22,144.37,553.05Z"/><path class="cls-1" d="M362.09,565.47c0-8.14.11-16.28,0-24.42-.06-3,.28-4.77,4.08-4.77s3.57,1.93,3.56,4.53c-.07,10.6.06,21.2-.1,31.8,0,1.7,1.48,5-1.42,5-3.29,0-7.48,2.35-10-2.16q-6.36-11.45-12.91-22.78c-.67-1.17-.85-2.92-3.28-3.11,0,8-.11,15.88,0,23.78.06,3-.24,4.67-4.07,4.67s-3.67-1.92-3.65-4.52c.06-10.23-.09-20.46.13-30.68,0-2.15-1.95-5.85,2.2-6.22,3.59-.33,7.47-1.37,9.88,3.6C350.32,548,355,555.4,359.36,563c.52.91,1.11,1.79,1.67,2.68Z"/><path class="cls-1" d="M910.47,555.73c0,5.76-.19,11.52.07,17.27.16,3.61-2,3.25-4.26,3.23s-4.75.57-4.39-3.09a14.45,14.45,0,0,0,0-2.79c-.34-3.81,1.85-9.41-1-11.05-4.25-2.5-10.09-.69-15.25-.79-2.27,0-2,1.72-2,3.15,0,3.16-.21,6.34,0,9.47.27,3.54-.34,5.25-4.63,5.27-4.54,0-4.07-2.45-4.06-5.31,0-10.77.14-21.55,0-32.32-.06-3.37.85-4.43,4.35-4.43s4.53.69,4.43,4.24c-.12,4-1.89,9.49.84,11.63,2.58,2,7.83.44,11.87.83,4.25.42,6.2-.85,5.47-5.4-.31-2,.16-4.1,0-6.12-.37-3.57.41-5.12,4.66-5.23,4.75-.12,4,2.57,4,5.27,0,5.39,0,10.78,0,16.17Z"/><path class="cls-1" d="M266.12,577.06c-8.92,3.58-11.8-2.52-14.71-8.14-2.29-4.42-4.81-7.55-10.61-6.82-3,.38-3.78,1.36-3.58,4,.16,2-.17,4.13.13,6.13.71,4.88-1.48,6.13-6,5.63-2.08-.24-2.87-.61-2.86-2.84.11-11.92.14-23.83,0-35.75,0-2.78,1.39-2.93,3.47-2.9,6.51.09,13-.07,19.54.19s11.22,3.54,12.63,8.32c1.75,6,.07,10.61-6.21,14.54-2.87,1.8-1.11,2.94-.29,4.35,1.32,2.24,2.8,4.39,4.2,6.58S264.65,574.73,266.12,577.06ZM245,555.38c2.14-.15,4.74.24,7.26-.66a5.11,5.11,0,0,0,3.55-5.07c.11-2.39-.48-4.41-2.92-5.42-4.64-1.94-9.5-.78-14.26-1-.78,0-1,.75-1.31,1.5C235,551.43,237.73,555.4,245,555.38Z"/><path class="cls-1" d="M921.1,555.32c0-5.58.11-11.16-.05-16.73-.08-2.91.45-4.31,3.91-4.19,8.17.29,16.35.11,24.53.08,2.3,0,4.29-.31,4.35,3.24.06,3.82-2.06,3.58-4.6,3.55-5.2-.07-10.42.23-15.61-.1-4.81-.31-3.72,2.91-3.77,5.5s-.74,5.66,4,5.25c5-.43,10,0,15-.15,2.44-.08,3.28.75,3.21,3.17s-.47,3.82-3.4,3.68c-4.64-.22-9.33.3-13.93-.16s-5.19,1.63-5,5.44c.13,3.43-.13,6.1,4.83,5.65,5.53-.51,11.14-.06,16.71-.16,2.34,0,3.77.19,3.78,3.22s-1,3.75-3.86,3.7c-8.73-.15-17.47-.17-26.2,0-3.32.07-4-1.24-3.92-4.28C921.27,566.48,921.1,560.89,921.1,555.32Z"/><path class="cls-1" d="M299.29,536c13.15,0,20.79,7.74,20.76,20.87,0,13.63-8.22,22-21.31,21.8-12.91-.2-20.56-8.44-20.43-22C278.44,543.47,286.14,535.89,299.29,536Zm-12.18,20.54c-.2,9.21,4.23,15,11.68,15.28,7.66.29,12.27-5.09,12.38-14.45.12-9.05-4.13-14.37-11.61-14.55C291.82,542.58,287.3,547.57,287.11,556.49Z"/><path class="cls-1" d="M740.56,534c13,.05,20.74,7.91,20.68,21-.07,13.74-7.88,21.71-21.28,21.7-12.9,0-20.72-8.23-20.64-21.71S727.07,534,740.56,534Zm11.76,21.72c.22-9.43-4.1-14.85-11.89-14.92-7.61-.06-12,4.75-12.25,13.43-.28,9.63,4.24,15.55,11.92,15.63S752.1,564.82,752.32,555.76Z"/><path class="cls-1" d="M850.12,534.49c4.83,0,9.66.17,14.48-.06,2.89-.14,3.33,1.12,3.4,3.59s-.79,3.24-3.17,3.3c-3.26.08-7.44-1.59-9.55.87s-.68,6.78-.75,10.27c-.14,6.68-.26,13.38,0,20.06.16,3.66-1.7,3.77-4.42,3.8s-4.58-.05-4.49-3.7c.21-8.92-.13-17.84.12-26.75.11-3.71-1-5.1-4.68-4.67-2,.24-4.08,0-6.12.06-2.87.11-2.62-1.81-2.71-3.73-.09-2.09.56-3.1,2.81-3.06C840.08,534.56,845.1,534.5,850.12,534.49Z"/><path class="cls-1" d="M178.12,537c6.11-1.79,9.75-.3,12,5.23,1.57,3.89,4.14,7.38,6.57,11.59,2.91-5.05,5.84-9.34,7.94-14s5.69-3.32,9-3.39c1.64,0,1.49,1.24.8,2.36-1.35,2.22-2.64,4.48-4.09,6.64-5.92,8.88-11.43,17.86-9.34,29.3.57,3.07-1.45,3.5-3.67,3-1.73-.38-5.47,1.73-4.72-2.38,2.35-13.09-4.94-22.66-11.25-32.66C180.29,541,179.37,539.23,178.12,537Z"/><path class="cls-1" d="M356.53,785.48c-19,0-38-.09-56.94.07-3.75,0-5.26-.85-5.08-4.92.34-7.25.22-14.52.05-21.77-.08-3.2.64-4.62,4.26-4.6q57.51.18,115,0c3.05,0,4.35.86,4.29,4.09-.17,7.63-.22,15.27,0,22.89.11,3.65-1.44,4.28-4.65,4.26C394.5,785.41,375.52,785.48,356.53,785.48Z"/></svg>