<svg id="Capa_1" data-name="Capa 1" xmlns="http://www.w3.org/2000/svg" viewBox="0 0 1080 1080"><defs><style>.cls-1{fill:#050404;}</style></defs><path class="cls-1" d="M381.31,519.45q0,60,0,120.07c0,20.42-9.64,31.93-29.57,37-23.56,6-47.51,6.64-71.53,6.71q-103.53.27-207.07.28c-2.19,0-5.51.67-5.14-2.41s4-1.94,6.25-2q100.17-.16,200.33-.2c22.94,0,45.83-.78,68.42-5.35a84.47,84.47,0,0,0,16.63-5.22c12.4-5.32,18-14.5,17.67-28q-1.38-61.36-2.13-122.73c-.48-42-.35-84.09-.87-126.14-.24-19.52,9.33-32.66,25.49-41.75C419.76,338.54,441.61,333,464,329c48.81-8.69,98-8.78,147.12-5.12,34.23,2.55,68.26,7.26,100.56,20a78,78,0,0,1,16,8.44c15.93,11.14,15.7,23.61,5.29,38.13-10.81,15.08-26.85,23.51-43.62,30.23-26.79,10.74-54.77,16.21-83.51,19.06-32,3.17-63.79,2.46-95.54-1-37.18-4-72.32-14.82-103.9-35.59-2.58-1.7-5.25-4.15-8.61-2.61-3.84,1.76-3.11,5.73-3.15,8.94-.5,45.64-1.11,91.28-1.23,136.93-.05,21.18,10.26,36.65,28.57,47,6.63,3.73,13.25,7.47,20,11,3.11,1.65,5.46,1,6.74-2.74,6-17.81,12.26-35.54,18.24-53.36,3.62-10.82,11.48-15.4,21.68-11.61Q524.07,550,559.35,563.7c10.91,4.25,13.34,10.95,9.65,21.88-4,11.91-9.62,23.14-14.28,34.76-4,10.08-5.3,17.15,8.41,21.81,26.29,8.94,52.29,18.72,78.52,27.79,5.89,2,12.07,2.07,16.23-4.29,2-3,2.45-4.93-2.2-4.89-28.27.26-52.92-11.3-77.24-23.83-12-6.2-14.16-11.35-9.7-24,6.69-19,13.62-37.9,20.63-56.78,3.63-9.77,10.68-13.35,21.77-9.88,14.9,4.66,29.48,10.34,44.2,15.58q14.55,5.19,29.1,10.38c8.77,3.15,12.89,11.33,9.52,19.79-7.2,18.11-14.69,36.1-22,54.19-.6,1.5-2.53,3.24-.87,4.85s3.32-.26,4.84-1c19.17-9,31.08-23.93,35-44.71,3.88-20.3,6.06-40.85,8.54-61.36,3.18-26.29,6.71-52.54,10.29-78.78,2.28-16.68,4.84-33.31,7.48-49.94A124.69,124.69,0,0,1,741,399.58c.64-2.15,1.61-5.16,4.86-4.58,2.79.49,2.84,3.13,3,5.39,1.15,20.68.44,41.37.16,62.05-.72,54.4-1.3,108.82-2.77,163.21-.76,27.88-14.81,49.42-36.67,65.9-20.37,15.35-44,22.72-68.89,26.7-41.38,6.62-82.52,3.26-123.38-3.79a570.05,570.05,0,0,1-86.54-22c-4.28-1.45-8.15-1.59-10.82,2.38-2.81,4.16-1.61,8.2,1.88,11.5a122.53,122.53,0,0,0,35.92,23.14c57,24.73,116.7,28.92,177.57,21.32,43.5-5.44,84-19.51,120-45.27,10.89-7.81,20.94-16.64,33.92-21.37a87.52,87.52,0,0,1,30.16-5.44q121.76-.16,243.5-.2a24.71,24.71,0,0,1,4,.11,2.92,2.92,0,0,1,2,1.3,2.06,2.06,0,0,1-1.53,2.61,20.93,20.93,0,0,1-5.25.58c-76.45.09-152.9.46-229.34,0-27.57-.15-51.42,6.92-73.2,24.81-24.32,20-53.38,31.53-83.79,39.78C638.07,758,599.7,761.06,561,758.41c-44-3-86.56-11.9-125-35a81.89,81.89,0,0,1-18.85-15.09c-4.1-4.54-5.35-9.86-1.78-15.37s8.44-7.38,15.07-5.32c26.09,8.1,52.4,15.58,79.26,20.56,41.44,7.7,83.28,12.14,125.33,6.22,24.94-3.52,49.11-10.36,70-25.59,22.77-16.6,35.83-38.39,36.37-67.06,1-53.27,2.26-106.53,2.19-159.81,0-11,.55-22,.74-33,0-1.82.85-4.71-2-4.81-2.36-.08-1.81,2.65-2,4.3-4.78,34-10,67.93-14.12,102-2.89,24.07-5.73,48.14-9.44,72.09-3.9,25.16-17.81,43.19-41.36,53.17-5.61,2.38-10,4.87-12.46,11-3.13,7.63-12.53,11.21-20.48,8.43Q604.74,662,567.26,648.37c-3.57-1.28-7.29-2-10.76-3.76-9-4.71-12-12.32-8-21.8,5.1-12.18,10.31-24.32,15.19-36.59,4.28-10.75,1.76-15.43-9-19.6-22.48-8.7-45.56-15.8-67.66-25.5-6.31-2.76-11.78-.24-14.41,6.83-5.08,13.65-9.79,27.43-14.63,41.16-1.63,4.65-3.11,9.35-4.8,14-1.4,3.84-.51,6.28,3.42,8,21.21,9.55,42.67,18.5,64.26,27.13a113.42,113.42,0,0,1,10.36,4.85c7.57,3.92,10.5,11.32,7.49,18.5s-11.73,10.88-19.22,8.06c-22.44-8.43-44.65-17.43-66.54-27.18-12.75-5.68-15.09-11.74-10.36-24.61,1.71-4.66,1.23-7.65-4.06-10.11a212,212,0,0,1-23.95-13.53c-17.79-11.29-25.66-27.86-25.69-48.13-.06-45.86.55-91.72.75-137.58,0-5.29.92-9.93,5.83-12.67s8.85.47,12.87,3c18.53,11.51,38,20.72,59.23,26.4,53.67,14.32,107.84,14,162.25,6.59,25.35-3.47,49.85-10.53,72.63-22.58,11.18-5.92,21.85-12.91,28.28-24.14,9.85-17.22,2.11-25-11.17-31.88-26.93-14-56.53-18.32-86.12-22-35-4.31-70.25-6.37-105.55-4.25-28.44,1.71-56.84,4.21-84.56,11.32-16.27,4.18-32.1,9.53-46.35,18.94-12.84,8.48-18.22,20.49-18.27,35.39Q378.47,456.07,381.31,519.45ZM648.39,655.93c6.83-.57,13.72,1.69,17-6.3,7.86-19.27,16-38.44,23.81-57.73,3-7.29-.22-13.87-7.46-16-24.51-7.17-47.79-17.85-72.29-25-7.89-2.31-12.27-1.11-15.22,6.79-7.28,19.51-14.15,39.17-21.18,58.78-3,8.28-2,11.24,5.58,15.29,7.31,3.88,14.69,7.7,22.32,10.88C616.43,649.1,632.14,655.07,648.39,655.93Zm-125.71,9.14c7,.61,10.73-1.89,12-7.16,1.2-5.09-1.26-8.68-5.95-10.7Q491.24,631.09,453.77,615c-2.39-1-4-1-5.58,1.54-5.63,8.78-3.25,17.22,6.33,21.32,13.34,5.7,26.58,11.64,40.09,16.91C504.34,658.56,513.89,663,522.68,665.07Z"/></svg>